:FULLY-SPECIFIED
:FORCE-ALL-JOINTS-BE-3DOF
:DEGREES
114
root 9.27004 16.1096 -21.346 4.68627 2.94736 4.70862
lfemur 9.11363 1.32631 -27.8772
ltibia 8.38601 0 0
lfoot -16.3066 2.38664 0
ltoes -3.76194 0 0
rfemur -38.495 8.14299 9.31176
rtibia 34.7684 0 0
rfoot -22.8367 -12.9586 0
rtoes -20.1946 0 0
lowerback -7.71759 -3.0745 -5.77435
upperback -0.905397 -3.68433 2.28454
thorax 3.91006 -1.93975 5.19977
lowerneck -20.026 -5.23727 -13.3238
upperneck 20.5996 -5.95013 11.1788
head 10.6876 -2.49038 5.37016
lclavicle -3.55746e-014 2.30847e-015 0
lhumerus -26.8606 -23.5041 93.6339
lradius 37.7707 0 0
lwrist 9.32268 0 0
lhand -12.11 -24.4584 0
lfingers 7.12502 0 0
lthumb 13.9508 5.05069 0
rclavicle -3.55746e-014 2.30847e-015 0
rhumerus -45.8616 8.62241 -84.0963
rradius 35.3767 0 0
rwrist -19.329 0 0
rhand -29.4787 -22.5209 0
rfingers 7.12502 0 0
rthumb -2.81402 -52.4819 0
115
root 9.26396 16.1002 -21.2126 4.75687 3.28855 4.76924
lfemur 9.94219 1.30021 -27.8284
ltibia 7.62365 0 0
lfoot -16.2083 2.13289 0
ltoes -3.96858 0 0
rfemur -38.8534 8.39443 8.92637
rtibia 33.995 0 0
rfoot -22.9466 -12.9864 0
rtoes -20.2389 0 0
lowerback -7.77375 -3.14081 -5.82729
upperback -0.929908 -3.76483 2.26585
thorax 3.9286 -1.98025 5.19856
lowerneck -19.973 -5.25464 -13.3192
upperneck 20.6405 -5.98265 11.1637
head 10.6966 -2.50844 5.35988
lclavicle -3.68956e-014 2.02632e-015 0
lhumerus -27.1363 -23.7396 93.9305
lradius 37.9932 0 0
lwrist 9.41106 0 0
lhand -12.0384 -24.4453 0
lfingers 7.12502 0 0
lthumb 14.0198 5.05913 0
rclavicle -3.68956e-014 2.02632e-015 0
rhumerus -45.9861 8.42282 -83.9657
rradius 35.2107 0 0
rwrist -19.2119 0 0
rhand -29.4955 -22.5643 0
rfingers 7.12502 0 0
rthumb -2.83022 -52.5251 0
116
root 9.25788 16.0907 -21.0792 4.82747 3.62975 4.82986
lfemur 10.7708 1.2741 -27.7796
ltibia 6.86128 0 0
lfoot -16.1099 1.87915 0
ltoes -4.17522 0 0
rfemur -39.2117 8.64587 8.54098
rtibia 33.2216 0 0
rfoot -23.0565 -13.0141 0
rtoes -20.2833 0 0
lowerback -7.82991 -3.20713 -5.88024
upperback -0.954419 -3.84534 2.24715
thorax 3.94714 -2.02076 5.19736
lowerneck -19.9201 -5.272 -13.3146
upperneck 20.6814 -6.01517 11.1485
head 10.7055 -2.5265 5.3496
lclavicle -3.82167e-014 1.74418e-015 0
lhumerus -27.412 -23.975 94.227
lradius 38.2157 0 0
lwrist 9.49943 0 0
lhand -11.9667 -24.4323 0
lfingers 7.12502 0 0
lthumb 14.0889 5.06758 0
rclavicle -3.82167e-014 1.74418e-015 0
rhumerus -46.1106 8.22323 -83.8351
rradius 35.0447 0 0
rwrist -19.0949 0 0
rhand -29.5122 -22.6078 0
rfingers 7.12502 0 0
rthumb -2.84642 -52.5684 0
117
root 9.2518 16.0812 -20.9459 4.89807 3.97094 4.89048
lfemur 11.5993 1.248 -27.7309
ltibia 6.09892 0 0
lfoot -16.0116 1.6254 0
ltoes -4.38187 0 0
rfemur -39.5701 8.8973 8.15559
rtibia 32.4482 0 0
rfoot -23.1664 -13.0419 0
rtoes -20.3276 0 0
lowerback -7.88607 -3.27344 -5.93318
upperback -0.97893 -3.92584 2.22846
thorax 3.96568 -2.06126 5.19616
lowerneck -19.8671 -5.28937 -13.31
upperneck 20.7223 -6.04769 11.1334
head 10.7145 -2.54456 5.33932
lclavicle -3.95377e-014 1.46203e-015 0
lhumerus -27.6877 -24.2105 94.5236
lradius 38.4382 0 0
lwrist 9.58781 0 0
lhand -11.8951 -24.4192 0
lfingers 7.12502 0 0
lthumb 14.1579 5.07602 0
rclavicle -3.95377e-014 1.46203e-015 0
rhumerus -46.2351 8.02364 -83.7045
rradius 34.8787 0 0
rwrist -18.9778 0 0
rhand -29.529 -22.6512 0
rfingers 7.12502 0 0
rthumb -2.86262 -52.6116 0
118
root 9.24571 16.0718 -20.8125 4.96867 4.31214 4.95109
lfemur 12.4279 1.2219 -27.6821
ltibia 5.33655 0 0
lfoot -15.9133 1.37165 0
ltoes -4.58851 0 0
rfemur -39.9285 9.14874 7.77019
rtibia 31.6748 0 0
rfoot -23.2763 -13.0696 0
rtoes -20.372 0 0
lowerback -7.94223 -3.33976 -5.98612
upperback -1.00344 -4.00634 2.20977
thorax 3.98422 -2.10176 5.19495
lowerneck -19.8142 -5.30674 -13.3054
upperneck 20.7631 -6.08021 11.1183
head 10.7234 -2.56262 5.32905
lclavicle -4.08588e-014 1.17988e-015 0
lhumerus -27.9634 -24.4459 94.8201
lradius 38.6607 0 0
lwrist 9.67618 0 0
lhand -11.8235 -24.4061 0
lfingers 7.12502 0 0
lthumb 14.2269 5.08447 0
rclavicle -4.08588e-014 1.17988e-015 0
rhumerus -46.3596 7.82406 -83.5739
rradius 34.7127 0 0
rwrist -18.8608 0 0
rhand -29.5458 -22.6947 0
rfingers 7.12502 0 0
rthumb -2.87882 -52.6549 0
119
root 9.23963 16.0623 -20.6791 5.03928 4.65333 5.01171
lfemur 13.2564 1.1958 -27.6333
ltibia 4.57419 0 0
lfoot -15.8149 1.1179 0
ltoes -4.79515 0 0
rfemur -40.2868 9.40018 7.3848
rtibia 30.9015 0 0
rfoot -23.3862 -13.0974 0
rtoes -20.4163 0 0
lowerback -7.99839 -3.40607 -6.03906
upperback -1.02795 -4.08684 2.19108
thorax 4.00276 -2.14227 5.19375
lowerneck -19.7613 -5.32411 -13.3008
upperneck 20.804 -6.11274 11.1032
head 10.7324 -2.58068 5.31877
lclavicle -4.21799e-014 8.97738e-016 0
lhumerus -28.2391 -24.6814 95.1167
lradius 38.8832 0 0
lwrist 9.76455 0 0
lhand -11.7518 -24.393 0
lfingers 7.12502 0 0
lthumb 14.296 5.09292 0
rclavicle -4.21799e-014 8.97738e-016 0
rhumerus -46.4841 7.62447 -83.4433
rradius 34.5468 0 0
rwrist -18.7437 0 0
rhand -29.5626 -22.7381 0
rfingers 7.12502 0 0
rthumb -2.89502 -52.6981 0
120
root 9.23355 16.0528 -20.5458 5.10988 4.99453 5.07233
lfemur 14.085 1.16969 -27.5846
ltibia 3.81182 0 0
lfoot -15.7166 0.864156 0
ltoes -5.0018 0 0
rfemur -40.6452 9.65161 6.99941
rtibia 30.1281 0 0
rfoot -23.4961 -13.1252 0
rtoes -20.4607 0 0
lowerback -8.05455 -3.47238 -6.09201
upperback -1.05246 -4.16734 2.17238
thorax 4.0213 -2.18277 5.19255
lowerneck -19.7083 -5.34148 -13.2962
upperneck 20.8449 -6.14526 11.088
head 10.7413 -2.59874 5.30849
lclavicle -4.35009e-014 6.15591e-016 0
lhumerus -28.5148 -24.9169 95.4132
lradius 39.1057 0 0
lwrist 9.85293 0 0
lhand -11.6802 -24.3799 0
lfingers 7.12502 0 0
lthumb 14.365 5.10136 0
rclavicle -4.35009e-014 6.15591e-016 0
rhumerus -46.6086 7.42488 -83.3128
rradius 34.3808 0 0
rwrist -18.6266 0 0
rhand -29.5793 -22.7816 0
rfingers 7.12502 0 0
rthumb -2.91122 -52.7413 0
